<svg xmlns="http://www.w3.org/2000/svg" width="256" height="256" viewBox="0 0 100 100"><rect width="100" height="100" rx="50" fill="#ffa31a"></rect><path fill="#ffffff" d="M40.56 72.26L40.56 72.26Q39.39 72.33 37.67 72.19Q35.95 72.04 34.48 72.70L34.48 72.70Q30.60 72.55 26.57 71.75Q22.54 70.94 19.17 69.77L19.17 69.77Q18.44 68.97 17.71 68.27Q16.98 67.57 15.73 67.28L15.73 67.28Q13.97 65.89 12.88 63.88Q11.78 61.86 11.12 59.59Q10.46 57.32 10.24 54.94Q10.02 52.56 10.09 50.36L10.09 50.36Q11.19 47.07 13.20 44.69Q15.22 42.31 17.34 39.96L17.34 39.96Q18.30 39.52 18.77 39.05Q19.25 38.57 19.80 38.17Q20.35 37.76 20.90 37.36Q21.44 36.96 21.88 36.37L21.88 36.37Q23.42 36.01 24.56 35.31Q25.69 34.62 26.79 33.85Q27.89 33.08 29.06 32.42Q30.23 31.76 31.77 31.39L31.77 31.39Q32.36 30.73 33.16 30.33Q33.97 29.93 34.81 29.52Q35.65 29.12 36.42 28.68Q37.19 28.24 37.63 27.51L37.63 27.51Q38.00 28.10 38.66 27.91Q39.32 27.73 39.90 27.51L39.90 27.51Q40.27 27.44 40.52 27.66Q40.78 27.88 41.00 28.10Q41.22 28.32 41.40 28.35Q41.59 28.39 41.73 28.02L41.73 28.02Q42.10 28.02 41.95 28.39Q41.81 28.76 41.73 28.90L41.73 28.90Q42.32 28.83 42.72 29.16Q43.12 29.49 44.00 29.56L44.00 29.56Q44.30 29.93 44.15 30.11Q44.00 30.29 44.00 30.73L44.00 30.73Q46.20 31.39 46.79 32.82Q47.37 34.25 46.86 35.79Q46.35 37.33 45.03 38.64Q43.71 39.96 42.17 40.40L42.17 40.40Q38.66 41.35 35.54 42.49Q32.43 43.62 30.45 45.82L30.45 45.82Q28.70 46.33 27.34 47.18Q25.99 48.02 24.78 49.08Q23.57 50.14 22.51 51.28Q21.44 52.41 20.27 53.51L20.27 53.51Q20.35 54.54 19.94 55.09Q19.54 55.64 19.17 56.22L19.17 56.22Q19.32 57.32 19.69 58.16Q20.05 59.00 20.49 59.81L20.49 59.81Q25.33 61.28 30.78 61.64Q36.24 62.01 41.73 62.08L41.73 62.08Q42.25 62.81 42.94 63.44Q43.64 64.06 44.22 64.75Q44.81 65.45 45.18 66.29Q45.54 67.13 45.32 68.38L45.32 68.38Q44.30 69.48 43.05 70.39Q41.81 71.31 40.56 72.26ZM72.27 59.22L72.27 59.22Q72.20 60.25 71.80 61.17Q71.40 62.08 70.81 62.92Q70.22 63.77 69.53 64.53Q68.83 65.30 68.17 65.89L68.17 65.89Q68.39 66.84 68.21 67.32Q68.03 67.79 68.10 68.75L68.10 68.75Q67.00 71.68 64.77 72.66Q62.53 73.65 60.56 72.26L60.56 72.26Q59.75 71.68 59.20 70.76Q58.65 69.84 57.70 69.62L57.70 69.62Q57.92 68.38 57.48 67.13Q57.04 65.89 56.53 65.82L56.53 65.82Q56.31 64.28 55.87 62.52Q55.43 60.76 55.06 58.97Q54.70 57.17 54.44 55.45Q54.18 53.73 54.26 52.27L54.26 52.27Q54.33 51.53 54.00 50.95Q53.67 50.36 53.52 49.56L53.52 49.56Q53.23 47.87 53.34 46.00Q53.45 44.14 53.45 42.45L53.45 42.45Q53.45 40.84 53.27 38.97Q53.09 37.11 52.94 35.38Q52.79 33.66 52.79 32.23Q52.79 30.81 53.16 30.00L53.16 30.00Q53.60 29.12 54.37 28.57Q55.14 28.02 55.80 27.36L55.80 27.36Q57.41 27.51 58.36 28.68Q59.31 29.85 59.09 30.88L59.09 30.88Q60.63 31.83 61.54 33.33Q62.46 34.83 63.01 36.70Q63.56 38.57 63.78 40.66Q64.00 42.75 64.14 44.76Q64.29 46.77 64.44 48.60Q64.58 50.44 65.02 51.75L65.02 51.75Q67.73 47.87 69.56 44.83Q71.40 41.79 73.30 39.01Q75.20 36.23 77.55 33.37Q79.89 30.51 83.63 26.92L83.63 26.92Q84.36 27.00 84.84 27.22Q85.31 27.44 85.68 27.58Q86.04 27.73 86.56 27.84Q87.07 27.95 87.95 27.80L87.95 27.80Q88.24 28.54 88.39 28.87Q88.53 29.20 88.64 29.52Q88.75 29.85 88.94 30.37Q89.12 30.88 89.56 31.83L89.56 31.83Q89.78 32.05 89.71 32.42Q89.63 32.78 89.60 33.11Q89.56 33.44 89.56 33.59Q89.56 33.74 89.93 33.59L89.93 33.59Q89.71 34.62 89.16 35.46Q88.61 36.30 88.68 37.47L88.68 37.47Q87.00 39.67 84.98 42.01Q82.97 44.36 80.95 46.85Q78.94 49.34 77.11 52.08Q75.28 54.83 73.96 57.83L73.96 57.83Q73.59 57.83 73.41 58.05Q73.23 58.27 73.08 58.53Q72.93 58.79 72.75 59.00Q72.57 59.22 72.27 59.22Z"></path></svg>