<?xml version="1.0" encoding="UTF-8"?><svg id="Layer_1" xmlns="http://www.w3.org/2000/svg" width="161.87" height="161.78" viewBox="0 0 161.87 161.78"><defs><style>.cls-1{fill:#fff;stroke:#231f20;stroke-miterlimit:10;stroke-width:6px;}.cls-2{fill:#231f20;}</style></defs><circle class="cls-1" cx="80.94" cy="80.89" r="75.76"/><g><path class="cls-2" d="M25.25,109.77c-1.89-1.43-3.43-3.22-4.64-5.37-1.21-2.15-2.15-4.43-2.83-6.84-.68-2.41-1.14-4.9-1.37-7.47-.23-2.57-.31-5.03-.24-7.37,.59-1.76,1.3-3.37,2.15-4.83,.85-1.46,1.79-2.86,2.83-4.2,1.04-1.33,2.13-2.6,3.27-3.81,1.14-1.2,2.26-2.42,3.37-3.66,.39,0,.75,.1,1.07,.29,.26-.72,.65-1.33,1.17-1.86s1.07-.99,1.66-1.42c.59-.42,1.17-.85,1.76-1.27,.59-.42,1.07-.93,1.46-1.51,1.63-.39,3.08-.94,4.35-1.66,1.27-.72,2.49-1.5,3.66-2.34,1.17-.85,2.38-1.63,3.61-2.34,1.24-.72,2.67-1.27,4.3-1.66,.59-.65,1.32-1.2,2.2-1.66,.88-.45,1.76-.88,2.64-1.27s1.72-.81,2.54-1.27c.81-.45,1.48-1.07,2-1.86,.39,.52,.94,.7,1.66,.54,.72-.16,1.37-.34,1.95-.54,.39-.06,.72,0,.98,.2,.26,.2,.5,.41,.73,.63,.23,.23,.42,.38,.59,.44,.16,.07,.34-.13,.54-.59,.52,.07,.67,.29,.44,.68-.23,.39-.38,.65-.44,.78,.65-.13,1.19-.02,1.61,.34,.42,.36,1.09,.6,2,.73,.33,.33,.42,.59,.29,.78-.13,.2-.23,.52-.29,.98,2.34,.72,3.84,1.84,4.49,3.37,.65,1.53,.72,3.12,.2,4.79-.52,1.66-1.48,3.19-2.88,4.59s-2.95,2.33-4.64,2.78c-2.02,.52-3.89,1.04-5.62,1.56-1.73,.52-3.39,1.11-4.98,1.76-1.6,.65-3.09,1.42-4.49,2.29-1.4,.88-2.62,1.9-3.66,3.08-1.82,.52-3.47,1.24-4.93,2.15-1.46,.91-2.83,1.92-4.1,3.03-1.27,1.11-2.49,2.26-3.66,3.47-1.17,1.21-2.34,2.39-3.52,3.56,0,1.11-.2,1.95-.59,2.54s-.81,1.17-1.27,1.76c.13,1.24,.41,2.29,.83,3.17,.42,.88,.86,1.77,1.32,2.69,5.21,1.56,10.73,2.52,16.55,2.88,5.83,.36,11.6,.57,17.33,.63,.59,.78,1.25,1.51,2,2.2,.75,.68,1.43,1.38,2.05,2.1,.62,.72,1.11,1.55,1.46,2.49,.36,.94,.44,2.07,.24,3.37-1.11,1.11-2.31,2.17-3.61,3.17-1.3,1.01-2.6,2-3.91,2.98-.59,.07-1.29,.07-2.1,0-.81-.06-1.66-.1-2.54-.1s-1.76,.05-2.64,.15-1.71,.31-2.49,.63c-4.1-.13-8.3-.63-12.6-1.51s-8.27-1.94-11.91-3.17c-.72-.85-1.46-1.64-2.25-2.39-.78-.75-1.82-1.28-3.12-1.61Z"/><path class="cls-2" d="M84.04,81.55c-.33-1.82-.42-3.71-.29-5.66,.13-1.95,.2-3.84,.2-5.66s-.11-3.63-.34-5.62c-.23-1.99-.42-3.89-.59-5.71-.16-1.82-.23-3.5-.2-5.03,.03-1.53,.24-2.72,.63-3.56,.52-.98,1.17-1.74,1.95-2.29,.78-.55,1.53-1.19,2.25-1.9,.85,.13,1.61,.38,2.29,.73,.68,.36,1.27,.81,1.76,1.37,.49,.55,.85,1.12,1.07,1.71,.23,.59,.28,1.17,.15,1.76,1.63,.98,2.94,2.29,3.96,3.96,1.01,1.66,1.79,3.48,2.34,5.47,.55,1.99,.94,4.09,1.17,6.3,.23,2.21,.42,4.39,.59,6.54,.16,2.15,.33,4.18,.49,6.1,.16,1.92,.47,3.6,.93,5.03,2.86-4.17,5.29-7.86,7.28-11.08,1.99-3.22,3.99-6.31,6.01-9.28,2.02-2.96,4.28-5.97,6.79-9.03,2.51-3.06,5.71-6.51,9.62-10.35,.85,.13,1.5,.29,1.95,.49,.45,.2,.91,.39,1.37,.59,.45,.2,.94,.34,1.46,.44,.52,.1,1.24,.08,2.15-.05,.33,.78,.57,1.35,.73,1.71,.16,.36,.31,.7,.44,1.03,.13,.33,.29,.75,.49,1.27,.2,.52,.49,1.3,.88,2.34,.2,.26,.28,.6,.24,1.03-.03,.42-.08,.8-.15,1.12-.07,.33-.08,.59-.05,.78,.03,.2,.24,.2,.63,0-.26,1.11-.68,2.1-1.27,2.98s-.85,1.94-.78,3.17c-1.76,2.34-3.71,4.75-5.86,7.23-2.15,2.48-4.3,5.06-6.45,7.76-2.15,2.7-4.22,5.5-6.2,8.4-1.99,2.9-3.66,5.97-5.03,9.23-.39,0-.68,.1-.88,.29s-.38,.42-.54,.68c-.16,.26-.33,.52-.49,.78-.16,.26-.44,.39-.83,.39-.13,2.08-.9,4.05-2.29,5.91-1.4,1.86-2.82,3.43-4.25,4.74,.13,.52,.2,.94,.2,1.27s-.03,.65-.1,.98c-.07,.33-.11,.67-.15,1.03-.03,.36-.02,.8,.05,1.32-.59,1.56-1.35,2.87-2.29,3.91-.94,1.04-1.97,1.82-3.08,2.34-1.11,.52-2.25,.73-3.42,.63s-2.28-.5-3.32-1.22c-.46-.26-.85-.62-1.17-1.07-.33-.45-.67-.89-1.03-1.32-.36-.42-.72-.81-1.07-1.17-.36-.36-.8-.6-1.32-.73,.13-.65,.15-1.33,.05-2.05-.1-.72-.24-1.37-.44-1.95s-.42-1.07-.68-1.46c-.26-.39-.52-.59-.78-.59-.26-1.63-.6-3.4-1.03-5.32-.42-1.92-.85-3.82-1.27-5.71-.42-1.89-.77-3.74-1.03-5.57-.26-1.82-.36-3.52-.29-5.08,.06-.78-.08-1.48-.44-2.1-.36-.62-.6-1.35-.73-2.2Z"/></g></svg>